<svg xmlns="http://www.w3.org/2000/svg" role="img" viewBox="150.16 150.16 199.42 199.42"><title>soon</title><circle cx="250" cy="250" r="95.931" fill="#ff686b"/><path d="M200.40931 294.09976c-2.66299 1.07825-5.66144 1.87156-8.99441 2.37957-3.33684.51712-6.03799.69378-8.10344.52998l-2.70716-9.61698c7.11903.47601 12.9376-.20014 17.45439-2.02898 2.38492-.96566 4.06796-2.18331 5.04856-3.65167.97797-1.47484 1.1018-3.11414.37108-4.91882-.54794-1.35328-1.3702-2.31822-2.46713-2.89575-1.09918-.5831-2.47335-.8941-4.12083-.93154-1.64454-.04617-4.22102.01204-7.72983.17372-3.28815.17375-6.10087.0935-8.43723-.2411-2.3451-.33756-4.4224-1.15144-6.23114-2.43979-1.80873-1.28835-3.22529-3.19617-4.24874-5.72384-1.64382-4.05983-1.4791-7.9349.49322-11.62485 1.97495-3.68346 5.73693-6.64912 11.2863-8.89605 2.61386-1.05835 5.33742-1.81913 8.17032-2.28324 2.83289-.46412 5.50386-.70732 8.0116-.73015l2.71109 9.227c-3.28553-.08624-6.2142.03474-8.78565.36387-2.57145.32913-5.00606.95888-7.30478 1.88963-2.57679 1.04334-4.36806 2.26813-5.37343 3.67531-1.00537 1.40718-1.1791 2.9232-.5212 4.54806.5104 1.2606 1.29111 2.14957 2.34174 2.66602 1.05325.52294 2.30973.80176 3.76946.83646 1.45586.04381 3.5598-.0464 6.3107-.26802 6.14987-.49741 10.92845-.13428 14.3367 1.08901 3.40598 1.21774 5.8943 3.76615 7.46569 7.6471 1.49858 3.70112 1.51902 7.44728.06224 11.23811-1.45678 3.79084-5.72658 7.11963-12.80812 9.98694zm39.46526-16.29233c-3.5593 1.44116-6.9686 1.90455-10.22604 1.38942-3.2545-.52387-6.11977-1.83432-8.59393-3.9321-2.47932-2.08923-4.36714-4.7373-5.66568-7.94438-1.29592-3.20059-1.79127-6.43836-1.48383-9.71312.30004-3.27176 1.4389-6.22506 3.41476-8.85915 1.97878-2.64282 4.74894-4.68473 8.30825-6.12589 3.56486-1.44341 6.97807-1.90515 10.23906-1.3839 3.25188.51738 6.12372 1.84674 8.61645 3.98772 2.49828 2.13872 4.39604 4.80865 5.69196 8.00925 1.29854 3.20708 1.78396 6.42298 1.45755 9.64824-.3186 3.22857-1.46405 6.16296-3.43727 8.80353-1.98234 2.63671-4.75641 4.67697-8.32128 6.12038zm-2.796-6.90542c2.75568-1.11578 4.52114-2.95587 5.29508-5.52082.7652-2.56789.4988-5.45602-.79974-8.6631-1.31356-3.24416-3.14397-5.53463-5.49032-6.87178-2.35021-1.32804-4.90381-1.43445-7.6595-.31868-2.75011 1.11353-4.50661 2.96509-5.2708 5.55414-.76155 2.59554-.48555 5.5154.82801 8.75955 1.29855 3.20708 3.11936 5.46584 5.46206 6.77534 2.34046 1.30394 4.8851 1.39887 7.63521.28535zm41.35978-8.70904c-3.5593 1.44117-6.9686 1.90456-10.22605 1.38943-3.2545-.52387-6.11976-1.83433-8.59392-3.93211-2.47932-2.08922-4.36714-4.73729-5.66569-7.94437-1.29592-3.2006-1.79127-6.43836-1.48382-9.71312.30003-3.27176 1.4389-6.22506 3.41475-8.85915 1.97879-2.64283 4.74895-4.68473 8.30825-6.1259 3.56487-1.4434 6.97808-1.90514 10.23907-1.3839 3.25188.51738 6.12372 1.84675 8.61644 3.98772 2.49829 2.13873 4.39604 4.80866 5.69196 8.00925 1.29855 3.20709 1.78396 6.42298 1.45755 9.64825-.3186 3.22857-1.46404 6.16295-3.43727 8.80353-1.98234 2.63671-4.7564 4.67696-8.32127 6.12037zm-2.796-6.90542c2.75568-1.11577 4.52114-2.95586 5.29508-5.52081.7652-2.5679.4988-5.45603-.79974-8.66311-1.31356-3.24416-3.14398-5.53463-5.49033-6.87178-2.3502-1.32804-4.9038-1.43444-7.65948-.31867-2.75012 1.11352-4.50662 2.96509-5.2708 5.55414-.76156 2.59554-.48556 5.51539.828 8.75955 1.29854 3.20708 3.11936 5.46584 5.46206 6.77533 2.34045 1.30394 4.88509 1.39887 7.6352.28535zm28.86583-44.44201c4.19516-1.69862 7.94001-1.58907 11.23419.32773 3.30236 1.92104 5.9117 5.24794 7.82836 9.98163l7.64491 18.881-8.38847 3.3965-7.37093-18.20437c-1.27866-3.15796-2.75496-5.27462-4.4278-6.3526-1.67603-1.08315-3.68538-1.151-6.02673-.20299-2.57123 1.04109-4.29719 2.8695-5.1801 5.48505l9.9455 24.56291-8.39773 3.40024-13.69853-33.83194 7.85086-3.1788 1.09606 2.3073c2.05862-3.08512 4.68889-5.27537 7.8904-6.57166z" style="text-transform:capitalize" fill="#fff"/></svg>